<svg width="26" height="24" viewBox="0 0 26 24" fill="none" xmlns="http://www.w3.org/2000/svg">
<path fill-rule="evenodd" clip-rule="evenodd" d="M18.4002 5.4C18.4002 8.38234 15.9826 10.8 13.0002 10.8C10.0179 10.8 7.60022 8.38234 7.60022 5.4C7.60022 2.41766 10.0179 0 13.0002 0C15.9826 0 18.4002 2.41766 18.4002 5.4ZM16.6002 5.4C16.6002 7.38822 14.9884 9 13.0002 9C11.012 9 9.40022 7.38822 9.40022 5.4C9.40022 3.41177 11.012 1.8 13.0002 1.8C14.9884 1.8 16.6002 3.41177 16.6002 5.4Z" fill="#1E5C97"/>
<path d="M13.0002 13.5C7.17327 13.5 2.20857 16.9456 0.317383 21.7728C0.778088 22.2303 1.26341 22.663 1.77118 23.0689C3.17945 18.6369 7.59727 15.3 13.0002 15.3C18.4032 15.3 22.821 18.6369 24.2293 23.0689C24.737 22.6631 25.2224 22.2303 25.6831 21.7729C23.7919 16.9456 18.8272 13.5 13.0002 13.5Z" fill="#1E5C97"/>
</svg>
